<svg id="Normal" xmlns="http://www.w3.org/2000/svg" viewBox="0 0 1984.208 812.479"><defs><style>.cls-1{fill:#2255a4;}.cls-2{fill:#fe6612;}.cls-3{fill:#5e5e5e;}</style></defs><path class="cls-1" d="M584.343,984.672a30.99,30.99,0,0,0-30.989,30.99c0,.33.015.657.025.985l-33.513,10.827a69.641,69.641,0,0,0-110.24-25.466l-53-53a31.01,31.01,0,1,0-9.533,9.95l53.128,53.127a69.66,69.66,0,0,0-8.989,68.908l-68.416,42.339a30.879,30.879,0,1,0,7.558,11.524l67.382-41.7a69.663,69.663,0,0,0,126.136-52.5L556.871,1030a30.989,30.989,0,1,0,27.472-45.324Z" transform="translate(-270.32 -902.093)"/><path class="cls-1" d="M518.629,1233.575a64.972,64.972,0,0,0-129.889,0h-.048v416a64.993,64.993,0,1,0,129.985,0v-416Z" transform="translate(-270.32 -902.093)"/><path class="cls-1" d="M1013.258,1170.5h-416a64.993,64.993,0,1,0,0,129.985H740.263v348.14a64.993,64.993,0,0,0,129.986,0v-348.14h143.009a64.993,64.993,0,1,0,0-129.985Z" transform="translate(-270.32 -902.093)"/><path class="cls-2" d="M683.486,1116.291s160.848-127.1,379.861-132.844,228.348,142.9,228.348,142.9,49.547,222.6-329.6,445.925c0,0,240.555-152.95,253.48-358.32-3.59-206.805-246.3-184.545-246.3-184.545S817.766,1035.867,683.486,1116.291Z" transform="translate(-270.32 -902.093)"/><path class="cls-3" d="M1452.551,1413.619a50.727,50.727,0,0,0-13.425-9.264,45.058,45.058,0,0,0-17.746-3.884c-23.764,0-41.356,18.527-41.356,41.537,0,27.044,22.684,40.64,41.51,40.64a43.911,43.911,0,0,0,19.135-4.631,46.742,46.742,0,0,0,11.882-8.368V1483.4a54.835,54.835,0,0,1-31.017,9.711c-30.554,0-53.237-22.412-53.237-51.249,0-29.733,22.992-51.846,53.854-51.846a49.614,49.614,0,0,1,30.4,9.861Z" transform="translate(-270.32 -902.093)"/><path class="cls-3" d="M1467.985,1441.56c0-29.734,23.918-51.548,53.546-51.548s53.547,21.814,53.547,51.548c0,29.584-23.765,51.547-53.547,51.547S1467.985,1471.144,1467.985,1441.56Zm11.728,0c0,22.86,18.672,41.088,41.818,41.088s41.819-18.228,41.819-41.088-18.671-41.089-41.819-41.089S1479.713,1418.7,1479.713,1441.56Z" transform="translate(-270.32 -902.093)"/><path class="cls-3" d="M1592.518,1491.314l17.128-105.187,39.5,84.12,40.276-84.269,16.048,105.336h-11.728l-9.722-69.328L1649,1495.5l-34.566-73.512-10.185,69.328Z" transform="translate(-270.32 -902.093)"/><path class="cls-3" d="M1725.692,1491.314l17.129-105.187,39.5,84.12,40.276-84.269,16.047,105.336h-11.727l-9.722-69.328-35.028,73.512-34.567-73.512-10.184,69.328Z" transform="translate(-270.32 -902.093)"/><path class="cls-3" d="M1873.834,1452.766c0,8.367,0,17.481,8.179,24.2,4.167,3.436,11.264,5.677,16.974,5.677s12.808-2.241,16.975-5.677c8.179-6.724,8.179-15.838,8.179-24.2v-61.111h11.419v64.1c0,8.367-.926,16.435-6.482,23.906-6.173,8.218-16.974,13.447-30.091,13.447s-23.918-5.229-30.091-13.447c-5.555-7.471-6.481-15.539-6.481-23.906v-64.1h11.419Z" transform="translate(-270.32 -902.093)"/><path class="cls-3" d="M1962.1,1491.314V1387.472l80.242,81.43v-77.247h11.42V1495.8l-80.243-81.431v76.948Z" transform="translate(-270.32 -902.093)"/><path class="cls-3" d="M2091.729,1391.655v99.659H2080.31v-99.659Z" transform="translate(-270.32 -902.093)"/><path class="cls-3" d="M2143.577,1402.114v89.2h-11.419v-89.2h-25v-10.459h61.416v10.459Z" transform="translate(-270.32 -902.093)"/><path class="cls-3" d="M2209.007,1448.433l-33.8-56.778h13.27l26.234,44.526,26.542-44.526h13.27l-34.1,56.778v42.881h-11.419Z" transform="translate(-270.32 -902.093)"/></svg>